#!OML:ASF E:\Mandelcareful walks\Project 1\Capture day 1\Session 1\Subject1.ASF
:FULLY-SPECIFIED
:DEGREES
1579
root 19.2105 15.8917 -4.83767 604.879 -80.6578 478.443
lowerback 33.2688 -0.157499 5.63867
upperback 9.39358 0.522366 -0.331851
thorax -6.55417 -0.150923 -3.47521
lowerneck -21.2303 12.99 7.25989
upperneck 26.3684 21.3217 -16.8416
head 15.8067 7.60527 -3.62826
rclavicle -1.98785e-014 6.36111e-015
rhumerus -19.9864 1.29174 -82.7794
rradius 62.3344
rwrist -20.9224
rhand -17.2154 -29.3859
rfingers 7.12502
rthumb 9.02751 -59.1728
lclavicle -1.98785e-014 6.36111e-015
lhumerus -22.9973 -8.03454 84.9136
lradius 51.558
lwrist 21.3042
lhand -22.099 -13.5561
lfingers 7.12502
lthumb 4.31317 16.38
rfemur -27.3573 -13.4316 17.0813
rtibia 53.0996
rfoot -26.0224 -6.48589
rtoes 14.8669
lfemur -36.1399 7.092 -14.1071
ltibia 28.2854
lfoot 4.69638 12.5316
ltoes -7.47248
1580
root 19.137 15.8714 -4.81426 607.113 -80.1469 476.265
lowerback 32.9862 -0.141824 5.19618
upperback 9.48911 0.358126 -0.616989
thorax -6.372 -0.217648 -3.48604
lowerneck -20.9733 13.0975 7.32975
upperneck 26.0158 21.4749 -17.08
head 15.6631 7.68873 -3.69657
rclavicle -2.14687e-014 -2.70347e-014
rhumerus -19.9066 1.50111 -82.8109
rradius 62.5202
rwrist -20.5435
rhand -17.2154 -30.033
rfingers 7.12502
rthumb 9.02748 -59.8198
lclavicle -2.14687e-014 -2.70347e-014
lhumerus -22.9803 -7.8585 84.8842
lradius 51.7946
lwrist 21.4021
lhand -22.0662 -13.5596
lfingers 7.12502
lthumb 4.34481 16.3759
rfemur -27.3273 -13.9886 16.1929
rtibia 53.485
rfoot -26.1994 -6.05734
rtoes 14.5201
lfemur -35.9078 6.75296 -14.5167
ltibia 26.6981
lfoot 5.9266 13.3066
ltoes -8.38825
1581
root 19.0653 15.8402 -4.80778 605.339 -80.4472 477.86
lowerback 33.1155 -0.0503587 5.30392
upperback 9.52262 0.505532 -0.588153
thorax -6.36802 -0.150844 -3.56224
lowerneck -20.8151 13.1496 7.41605
upperneck 25.9252 21.5427 -17.1864
head 15.6286 7.72879 -3.74071
rclavicle 7.95139e-016 2.22639e-014
rhumerus -20.1739 1.73571 -82.8677
rradius 62.8313
rwrist -20.0033
rhand -17.9063 -30.4218
rfingers 7.12502
rthumb 8.36077 -60.2363
lclavicle 7.95139e-016 2.22639e-014
lhumerus -23.1002 -7.92411 84.914
lradius 52.0677
lwrist 21.5353
lhand -22.1815 -13.644
lfingers 7.12502
lthumb 4.23352 16.2936
rfemur -26.949 -13.8275 16.5123
rtibia 53.7787
rfoot -26.5575 -6.0535
rtoes 14.5578
lfemur -35.4684 6.76966 -13.7133
ltibia 25.4795
lfoot 6.9352 14.0909
ltoes -9.13404
1582
root 18.9967 15.8168 -4.78487 604.702 -80.4942 478.499
lowerback 33.1495 0.0370572 5.298
upperback 9.49632 0.613064 -0.64473
thorax -6.40025 -0.0990949 -3.65576
lowerneck -20.3915 13.2716 7.63756
upperneck 25.7856 21.725 -17.4767
head 15.5861 7.82799 -3.86394
rclavicle -2.78299e-014 7.95139e-015
rhumerus -20.3585 1.48563 -82.7923
rradius 63.0093
rwrist -19.8385
rhand -17.7051 -30.4855
rfingers 7.12502
rthumb 8.55489 -60.2922
lclavicle -2.78299e-014 7.95139e-015
lhumerus -23.2706 -8.00733 85.0457
lradius 52.483
lwrist 21.8298
lhand -22.256 -13.0808
lfingers 7.12502
lthumb 4.16152 16.8583
rfemur -26.8384 -13.8968 16.4471
rtibia 54.0841
rfoot -26.7659 -6.07356
rtoes 14.2918
lfemur -35.2657 6.60649 -13.307
ltibia 24.5656
lfoot 7.49444 15.1799
ltoes -8.605
1583
root 18.9266 15.7944 -4.76212 603.547 -80.7174 479.638
lowerback 33.1276 0.0926952 5.35537
upperback 9.58517 0.688596 -0.614044
thorax -6.28648 -0.0629354 -3.67888
lowerneck -20.4235 13.3219 7.68206
upperneck 25.6815 21.7923 -17.5536
head 15.5769 7.85674 -3.87903
rclavicle 1.35174e-014 -2.54444e-014
rhumerus -20.0563 1.30121 -82.639
rradius 62.9118
rwrist -20.101
rhand -17.2219 -30.6875
rfingers 7.12502
rthumb 9.02121 -60.4746
lclavicle 1.35174e-014 -2.54444e-014
lhumerus -23.209 -7.91734 85.1539
lradius 52.8498
lwrist 22.2161
lhand -22.0517 -12.5646
lfingers 7.12502
lthumb 4.35887 17.3705
rfemur -26.6274 -13.7878 16.6163
rtibia 54.2983
rfoot -27.0893 -6.26385
rtoes 13.5035
lfemur -35.1598 6.63237 -12.7811
ltibia 24.0192
lfoot 8.00958 16.1526
ltoes -7.72361
1584
root 18.8548 15.7699 -4.7369 603.583 -80.7992 479.527
lowerback 33.2928 0.0924299 5.2053
upperback 9.62059 0.633051 -0.674081
thorax -6.31918 -0.0932396 -3.64252
lowerneck -20.3747 13.407 7.74596
upperneck 25.4144 21.883 -17.6584
head 15.4854 7.91161 -3.89926
rclavicle -2.3059e-014 -1.59028e-015
rhumerus -19.7521 1.51507 -82.5943
rradius 62.701
rwrist -20.3082
rhand -17.3473 -30.7546
rfingers 7.12502
rthumb 8.90018 -60.5469
lclavicle -2.3059e-014 -1.59028e-015
lhumerus -23.0889 -7.75377 85.1165
lradius 53.026
lwrist 22.2079
lhand -21.5661 -12.5387
lfingers 7.12502
lthumb 4.82776 17.3863
rfemur -26.2529 -13.7816 16.5174
rtibia 54.5022
rfoot -27.3988 -6.15175
rtoes 14.2361
lfemur -35.0619 6.64868 -12.6028
ltibia 23.6668
lfoot 8.63037 16.7745
ltoes -7.53016
